# xmcd CD database file
#
# Track frame offsets:
#	150
#	48418
#	89664
#	102625
#	126485
#	158543
#	205366
#
# Disc length: 3181 seconds
#
# Revision: 0
# Processed by: cddbd v1.5.2PL0 Copyright (c) Steve Scherf et al.
# Submitted via: CDex 1.79
#
DISCID=630c6b07
DTITLE=Joakin Bello - Expansiones
DYEAR=1900
DGENRE=New Age
TTITLE0=Expansiones
TTITLE1=La druidesa y el toro
TTITLE2=Preludio
TTITLE3=Aria
TTITLE4=Fluidos
TTITLE5=Variaciones antiguas
TTITLE6=Claro de luna
EXTD=
EXTT0=
EXTT1=
EXTT2=
EXTT3=
EXTT4=
EXTT5=
EXTT6=
PLAYORDER=
